# xmcd CD database file
#
# Track frame offsets:
#	150
#	13650
#	37385
#	40438
#	62812
#	67074
#	80454
#	85176
#	102600
#	120030
#	136416
#	148830
#	162150
#	193950
#	209100
#	227380
#	244386
#
# Disc length: 3556 seconds
#
# Revision: 0
# Processed by: cddbd v1.5.2PL0 Copyright (c) Steve Scherf et al.
# Submitted via: CDex 1.70beta3
#
DISCID=020de211
DTITLE=Frank Federsel - 4 Jahreszeiten
DYEAR=1900
DGENRE=Jazz
TTITLE0=Herbstsonne mitnichten
TTITLE1=Winter und der Zauber ber Rose
TTITLE2=Promenade 1
TTITLE3=Fruhling und ein mildes Sonnenlacheln
TTITLE4=Promenade 2
TTITLE5=Sommer und der Tanz imMorgenrot
TTITLE6=Promenade 3
TTITLE7=Herdst unddie goldene verwandlung
TTITLE8=Charmes1 wie derWind will
TTITLE9=Charmes2 Spiele des Ledens
TTITLE10=Charmes3 Gedanken fliegen
TTITLE11=Charmes4 Reime um mitternacht
TTITLE12=Freuen und Danken inklusive Erleuchtung
TTITLE13=im voruberwehn
TTITLE14=1.New York
TTITLE15=2.Sehnsucht
TTITLE16=3.Bisweilen
EXTD=
EXTT0=
EXTT1=
EXTT2=
EXTT3=
EXTT4=
EXTT5=
EXTT6=
EXTT7=
EXTT8=
EXTT9=
EXTT10=
EXTT11=
EXTT12=
EXTT13=
EXTT14=
EXTT15=
EXTT16=
PLAYORDER=
